<?xml version="1.0" encoding="utf-8"?>
<!-- Generator: Adobe Illustrator 19.0.0, SVG Export Plug-In . SVG Version: 6.00 Build 0)  -->
<svg version="1.1" id="Layer_1" xmlns="http://www.w3.org/2000/svg" xmlns:xlink="http://www.w3.org/1999/xlink" x="0px" y="0px"
	 viewBox="0 0 700 600" style="enable-background:new 0 0 700 600;" xml:space="preserve">
<style type="text/css">
	.st0{fill:#F26122;}
	.st1{fill:#D13B07;}
</style>
<g id="XMLID_2_">
	<path id="XMLID_71_" class="st0" d="M203.1,222.5c-1.9-0.4-3.9-0.5-5.8-0.9c-1-0.2-2.2-0.5-2.9-1.2c-6.9-6.6-16.5-7.1-24.3-1.9
		c-3.1,2.1-5.3,5.1-6.5,8.6c-0.5,1.5-1.2,3-1.6,4.5c-0.9,3.2-2.8,5.6-5.2,7.8c-1.4,1.3-2.8,2.5-4.3,3.8c-3.8,3.3-6.7,7-8.4,11.9
		c-2,5.8-4.8,11.4-7.1,17.2c-1.4,3.5-2.6,7-3.8,10.5c0,1.8-0.4,3.5-1.3,5.1v0c1.7-2.4,3.4-4.9,5.1-7.3c0.4-0.6,0.7-1.2,1-1.8
		c0.2,0,0.4,0.1,0.6,0.1c0.1,1.4,0.4,2.8,0.3,4.1c-0.2,1.4-0.8,2.8-1.1,4.2c-0.2,1-0.2,2-0.2,3.1c0,1.2,0.2,2.4,0.1,3.5
		c-0.1,1-0.7,2-0.7,3c-0.3,5.5,0.1,11.1-0.7,16.5c-0.8,5.5,2.4,9.6,3.6,14.3c0,0.1,0.2,0.2,0.2,0.3c0.3,1,0.9,1.9,0.9,2.9
		c0.1,6.6,0.1,13.2,0.1,19.7c0,1-0.4,2.1-0.9,3c-2.5,3.8-4.2,8-5,12.4c-0.5,2.6-0.9,5.3,0.2,7.9c0.7,1.8,1.4,3.7,2.2,5.5
		c0.7,1.8,3.5,3.7,5.3,3.5c2.3-0.2,4.8,0.4,6.5-2.1c0.6,1,1,1.8,1.5,2.4c0.6,0.6,1.2,1.5,2,1.6c1.7,0.3,3.5,0.2,5.2,0.2
		c1.7,0,4.3-1.8,4.1-3.1c-0.7-4.4-1.2-8.8-2.4-13.1c-1.3-5.1-3.6-9.8-7.3-13.8c-0.5-0.5-0.7-1.5-0.8-2.2c-0.9-6.4-1.7-12.8-2.6-19.2
		c-0.1-0.9,0-1.9,0.2-2.8c0.3-1.4,0.7-2.7,1.2-4c0.2-0.6,0.5-1.5,0.9-1.5c1.8-0.1,1.9-1.4,2.1-2.7c0.1-0.6,0-1.4,0.3-1.8
		c1.2-1.5,1-3,0.7-4.7c-0.5-3.2-3.3-22.6-3.5-24.7c1.8,0.3,3.2,0.7,4.6,0.6c2.1-0.1,3.8,0.7,5.4,1.9c0.7,0.5,15.6,13.5,16.9,14
		c0.8,0.3,1.6,0.9,2.4,1c0.4,0.1,1.2-0.4,1.3-0.8c1-4.1,0.5-5.3-2.9-7.6c-0.1-0.1-2.9-2-3.6-4.2c-0.5-1.5-0.9-3.1-1.8-4.3
		c-1.5-2.2-3.3-4.1-4.9-6.3c-2.2-3-1.6-5.6,1.8-7.1c3.8-1.8,7-4.3,9.7-7.5c4.7-5.7,7.9-12.1,7.5-19.7c-0.2-3.2-0.1-6.3-0.1-9.5
		c0-3.9,0.7-7.6,3-10.8c1-1.4,2.2-2.4,4-2.6c3.5-0.3,7-0.6,10.6-0.9c3.6-0.3,7.3-0.6,10.9-0.9v-0.4
		C211.9,223.7,207.4,223.3,203.1,222.5z M150.5,354c0,0.4,0,0.8-0.1,1.1c-0.9,2.1-1.9,4.1-2.7,5.9c-1.6-2.9-3.2-5.8-4.8-8.7
		c-0.2-0.4-0.4-0.9-0.4-1.4c0-6.8-0.1-13.7-0.1-20.5c0-0.2,0.1-0.3,0.2-0.6c0.7,0.2,1.5,0.7,2.1,0.6c2.3-0.3,2.8,0.8,3.1,2.9
		C148.5,340.3,149.6,347.2,150.5,354z M168.3,288.8c-1.5-0.5-3.5-1.1-5.5-1.8c-0.4-0.1-0.7-0.7-1-1c-0.9-1.1-1.4-2.7-3.2-2.9
		c-0.4,0-0.7-0.6-1.5-1.3c2.1-0.4,3.7-0.8,5.4-1c0.4-0.1,1.2,0.3,1.4,0.7C165.5,284.1,167,286.7,168.3,288.8z"/>
	<path id="XMLID_3_" class="st1" d="M136.7,298.7c4.8-6,6.6-13.8,9.5-20.9c4.7-11.7,12.6-22,22.6-29.7c2.9-2.2,5.9-4.2,8.3-6.9
		c2.4-2.7,3.9-6.1,6-9c2.6-3.7,6-6.9,10-9.2c1-0.6,2.1-1.4,1.9-2.5c-0.1-0.5-0.5-0.9-1-1.2c-10.6-7.8-22.8-4.2-28.6,4.3
		c-2.1,3.1-2,6.7-3.7,10.1c-19.8,19.8-15.3,17.4-18,22.5c-6.5,9.3-9.1,20.8-11.6,31.9c2.9-2.8,4.8-5.5,6.8-9
		c-1.7,9.4-1.6,13.5-2,19.7"/>
</g>
<g id="XMLID_11_">
	<path id="XMLID_83_" class="st0" d="M208,362.5h-13v-29.3v-2.6c0-3-0.9-5.2-2.7-6.6c-1.8-1.4-3.9-2.1-6.1-2.1c-2.3,0-4.3,0.7-6,2.1
		c-1.8,1.4-2.6,3.6-2.6,6.6v32h-13.2v-29.3c0-8.5,2.2-14.2,6.7-17.1c4.4-2.9,9.4-4.4,14.8-4.7c2.9,0,5.7,0.3,8.5,0.9
		c2.8,0.6,5.3,1.9,7.5,3.8c1.9-1.6,4.1-2.8,6.7-3.5c2.6-0.7,5.2-1.1,8-1.2c5.5,0,10.6,1.4,15.2,4.3c4.6,2.9,7,8.7,7,17.5v29.3h-6.6
		c-1.9,0-3.4-0.6-4.6-1.8c-1.2-1.2-1.8-2.7-1.8-4.6v-25.6c0-3-0.9-5.2-2.7-6.6c-1.8-1.4-3.9-2.1-6.1-2.1c-2.3,0-4.3,0.7-6.1,2.1
		c-1.8,1.4-2.7,3.6-2.7,6.6v2.6V362.5z"/>
	<path id="XMLID_85_" class="st0" d="M252.3,358c-2.6-2.3-4.5-5.3-5.6-9.1c-1.1-3.8-1.7-7.8-1.7-11.9c0-3.4,0.5-6.8,1.4-10.2
		c0.9-3.4,2.4-6.2,4.4-8.5c3.3-3.8,7.5-6,12.6-6.7c5.1-0.7,9.8-0.3,13.9,1.2c4.8,1.9,8.3,5.1,10.5,9.8c2.1,4.1,3.2,9,3.2,14.5
		c0,4-0.4,7.5-1.3,10.3c-0.9,2.9-2,5.3-3.4,7.3c-3,4.1-6.8,6.7-11.5,7.7c-4.1,1.1-8.3,1.2-12.5,0.3
		C258.1,361.8,254.8,360.2,252.3,358z M261.3,324.9c-2.6,2.9-3.8,7.2-3.6,12.9c0.3,5.7,1.3,9.7,3.2,11.9c0.8,1,2.1,1.9,3.9,2.5
		c1.9,0.7,3.8,0.8,5.7,0.2c1.9-0.6,3.7-2,5.2-4.2s2.3-5.9,2.4-10.9c0-4.5-0.7-7.9-2.2-10.2c-1.4-2.3-3.1-3.7-5-4.3
		c-1.9-0.6-3.8-0.7-5.6-0.1C263.6,323.3,262.2,324,261.3,324.9z"/>
	<path id="XMLID_88_" class="st0" d="M319.1,362.5c-4.1,0.3-8.6,0.2-13.4-0.2c-4.8-0.4-7.2-3.4-7.2-9.2v-55.3h6.8
		c1.6,0,3.1,0.6,4.3,1.9c1.3,1.3,1.9,2.8,1.9,4.5v8.5h7.7v2.6c0,1.9-0.6,3.4-1.9,4.6c-1.3,1.2-2.8,1.8-4.5,1.8h-1.3v27.8
		c0,2.1,1.3,3.2,3.8,3.2h3.9V362.5z"/>
	<path id="XMLID_90_" class="st0" d="M367.7,362.5h-13v-29.3v-2.6c0-3-0.9-5.2-2.7-6.6c-1.8-1.4-3.9-2.1-6.1-2.1
		c-2.3,0-4.3,0.7-6,2.1c-1.8,1.4-2.6,3.6-2.6,6.6v32h-13.2v-29.3c0-8.5,2.2-14.2,6.7-17.1c4.4-2.9,9.4-4.4,14.8-4.7
		c2.9,0,5.7,0.3,8.5,0.9c2.8,0.6,5.3,1.9,7.5,3.8c1.9-1.6,4.1-2.8,6.7-3.5c2.6-0.7,5.2-1.1,8-1.2c5.5,0,10.6,1.4,15.2,4.3
		c4.6,2.9,7,8.7,7,17.5v29.3h-6.6c-1.9,0-3.4-0.6-4.6-1.8c-1.2-1.2-1.8-2.7-1.8-4.6v-25.6c0-3-0.9-5.2-2.7-6.6
		c-1.8-1.4-3.9-2.1-6.1-2.1c-2.3,0-4.3,0.7-6.1,2.1c-1.8,1.4-2.7,3.6-2.7,6.6v2.6V362.5z"/>
	<path id="XMLID_92_" class="st0" d="M412,358c-2.6-2.3-4.5-5.3-5.6-9.1c-1.1-3.8-1.7-7.8-1.7-11.9c0-3.4,0.5-6.8,1.4-10.2
		c0.9-3.4,2.4-6.2,4.4-8.5c3.3-3.8,7.5-6,12.6-6.7c5.1-0.7,9.8-0.3,13.9,1.2c4.8,1.9,8.3,5.1,10.5,9.8c2.1,4.1,3.2,9,3.2,14.5
		c0,4-0.4,7.5-1.3,10.3c-0.9,2.9-2,5.3-3.4,7.3c-3,4.1-6.8,6.7-11.5,7.7c-4.1,1.1-8.3,1.2-12.5,0.3C417.9,361.8,414.5,360.2,412,358
		z M421,324.9c-2.6,2.9-3.8,7.2-3.6,12.9c0.3,5.7,1.3,9.7,3.2,11.9c0.8,1,2.1,1.9,3.9,2.5c1.9,0.7,3.8,0.8,5.7,0.2
		c1.9-0.6,3.7-2,5.2-4.2c1.5-2.3,2.3-5.9,2.4-10.9c0-4.5-0.7-7.9-2.2-10.2c-1.4-2.3-3.1-3.7-5-4.3c-1.9-0.6-3.8-0.7-5.6-0.1
		C423.3,323.3,421.9,324,421,324.9z"/>
	<path id="XMLID_96_" class="st0" d="M478.9,362.5c-4.1,0.3-8.6,0.2-13.4-0.2c-4.8-0.4-7.2-3.4-7.2-9.2v-55.3h6.8
		c1.6,0,3.1,0.6,4.3,1.9c1.3,1.3,1.9,2.8,1.9,4.5v8.5h7.7v2.6c0,1.9-0.6,3.4-1.9,4.6c-1.3,1.2-2.8,1.8-4.5,1.8h-1.3v27.8
		c0,2.1,1.3,3.2,3.8,3.2h3.9V362.5z"/>
	<path id="XMLID_98_" class="st1" d="M487.8,352.1h6.4v10.3h-10.3v-6.4C483.8,353.4,485.2,352.1,487.8,352.1z"/>
	<path id="XMLID_100_" class="st1" d="M499.5,297.8h6.8c1.8,0,3.3,0.6,4.5,1.9c1.3,1.3,1.9,2.8,1.9,4.5v3.9h-13.2V297.8z
		 M499.5,312.5h6.8c1.8,0,3.3,0.6,4.5,1.9c1.3,1.3,1.9,2.8,1.9,4.5v43.6h-13.2V312.5z"/>
	<path id="XMLID_103_" class="st1" d="M523.3,358c-2.6-2.3-4.5-5.3-5.6-9.1c-1.1-3.8-1.7-7.8-1.7-11.9c0-3.4,0.5-6.8,1.4-10.2
		c0.9-3.4,2.4-6.2,4.4-8.5c3.3-3.8,7.5-6,12.6-6.7c5.1-0.7,9.8-0.3,13.9,1.2c4.8,1.9,8.3,5.1,10.5,9.8c2.1,4.1,3.2,9,3.2,14.5
		c0,4-0.4,7.5-1.3,10.3c-0.9,2.9-2,5.3-3.4,7.3c-3,4.1-6.8,6.7-11.5,7.7c-4.1,1.1-8.3,1.2-12.5,0.3
		C529.2,361.8,525.8,360.2,523.3,358z M532.3,324.9c-2.6,2.9-3.8,7.2-3.6,12.9c0.3,5.7,1.3,9.7,3.2,11.9c0.8,1,2.1,1.9,3.9,2.5
		c1.9,0.7,3.8,0.8,5.7,0.2c1.9-0.6,3.7-2,5.2-4.2c1.5-2.3,2.3-5.9,2.4-10.9c0-4.5-0.7-7.9-2.2-10.2c-1.4-2.3-3.1-3.7-5-4.3
		c-1.9-0.6-3.8-0.7-5.6-0.1C534.6,323.3,533.2,324,532.3,324.9z"/>
</g>
</svg>
